<svg xmlns="http://www.w3.org/2000/svg" xmlns:xlink="http://www.w3.org/1999/xlink" viewBox="0 0 1280 640"><defs><style>.a{fill:#03a9f4;}.b{fill:url(#a);}.c{fill:#ccff90;}.d{fill:#424242;}.e,.f{fill:#212121;}.f{fill-opacity:0.9;}.g{fill:#757575;}.h{fill:#006064;}.i,.l,.n{fill:#fff;}.j,.m{fill:none;}.j,.l{stroke:#fff;}.j,.l,.m,.n{stroke-miterlimit:10;}.j{stroke-width:2px;}.k{fill:#e57373;}.l{stroke-width:0.5px;}.m{stroke:#fafafa;stroke-width:5px;}.n{stroke:#5c6bc0;stroke-width:3px;}.o{fill:#283593;}.p{fill:#3f51b5;}.q{fill:#eceff1;}.r{fill:#ffc107;}.s{fill:#ff8f00;}.t{fill:#303f9f;}.u{fill:#5c6bc0;}</style><linearGradient id="a" x1="160.2" y1="109.11" x2="838.8" y2="500.89" gradientUnits="userSpaceOnUse"><stop offset="0" stop-color="#424242"/><stop offset="0.28" stop-color="#333"/><stop offset="0.66" stop-color="#262626"/><stop offset="1" stop-color="#212121"/></linearGradient></defs><path class="a" d="M1280,640V0H0V640Z"/><rect class="b" x="165.5" y="97" width="668" height="416" rx="4"/><rect class="c" x="187.5" y="117" width="624" height="376"/><rect class="d" x="103.5" y="513" width="792" height="25"/><polygon class="e" points="884.5 543 114.5 543 103.5 538 895.5 538 884.5 543"/><rect class="f" x="230.5" y="152" width="64" height="112"/><rect class="f" x="302.5" y="152" width="320" height="112"/><rect class="g" x="256.5" y="166" width="12" height="72"/><rect class="h" x="256.5" y="207.5" width="12" height="31"/><rect class="i" x="256.5" y="201" width="12" height="12"/><circle class="j" cx="342.5" cy="188" r="16"/><rect class="i" x="335.5" y="182" width="4" height="12"/><polygon class="i" points="342.5 188 350.5 194 350.5 182 342.5 188"/><circle class="j" cx="410.5" cy="188" r="16"/><rect class="i" x="412.5" y="182" width="4" height="12" transform="translate(829 376) rotate(-180)"/><rect class="i" x="404.5" y="182" width="4" height="12" transform="translate(813 376) rotate(-180)"/><rect class="k" x="529.5" y="171" width="70" height="74"/><path class="l" d="M345,243.09s-5-.7-4.68-2.68c.47-3.31,3.25-1.56,3.25-1.56l1.53-10.9-9.9-1.39-2.09,14.86s-4.95-.7-4.67-2.68c.46-3.31,3.25-1.56,3.25-1.56L334,221.33l13.86,1.95Z"/><path class="m" d="M1154.5,154V526h-74m-104-186v83h178"/><rect class="n" x="1140.5" y="262" width="28" height="76" rx="14"/><rect class="o" x="971.5" y="320" width="10" height="28"/><rect class="p" x="965.5" y="298.87" width="42" height="22.26"/><path class="q" d="M993.89,290c10-8,40,6,40,20s-31,28-40,20C987.87,324.64,987.17,295.37,993.89,290Z"/><rect class="o" x="1149.5" y="164" width="10" height="28" transform="translate(2309 356) rotate(-180)"/><rect class="p" x="1123.5" y="142.87" width="42" height="22.26" transform="translate(2289 308) rotate(-180)"/><path class="q" d="M1137.11,134c-10-8-40,6-40,20s31,28,40,20C1143.13,168.64,1143.83,139.37,1137.11,134Z"/><rect class="p" x="1073" y="521.5" width="9" height="9"/><polygon class="r" points="1049.5 530.5 1007.5 530.5 1003.5 526 1007.5 521.5 1049.5 521.5 1049.5 530.5"/><rect class="s" x="1018" y="521.5" width="4" height="9"/><rect class="s" x="1038" y="521.5" width="4" height="9"/><rect class="s" x="1028" y="521.5" width="4" height="9"/><rect class="t" x="1049" y="519" width="25" height="14"/><rect class="p" x="1151.5" y="288" width="6" height="28" rx="3"/><circle class="j" cx="478.5" cy="188" r="16"/><rect class="i" x="481.5" y="182" width="4" height="12" transform="translate(967 376) rotate(-180)"/><polygon class="i" points="478.5 188 470.5 194 470.5 182 478.5 188"/><rect class="u" x="1149" y="274.63" width="11" height="2.75"/><rect class="u" x="1149" y="274.63" width="11" height="2.75" transform="translate(878.5 1430.5) rotate(-90)"/><rect class="u" x="1149" y="323.63" width="11" height="2.75"/></svg>